HIERARCHY
ROOT Hips
{
  OFFSET 59.9703 92.7258 6.3843
  CHANNELS 6 Xposition Yposition Zposition Zrotation Xrotation Yrotation
  JOINT spine
  {
    OFFSET 0 7.4756 0.429885
    CHANNELS 3 Zrotation Xrotation Yrotation
    JOINT spine1
    {
      OFFSET 0 9.92301 0
      CHANNELS 3 Zrotation Xrotation Yrotation
      JOINT spine2
      {
        OFFSET 0 9.50804 0
        CHANNELS 3 Zrotation Xrotation Yrotation
        JOINT Neck
        {
          OFFSET 0 24.4111 1.16384
          CHANNELS 3 Zrotation Xrotation Yrotation
          JOINT Head
          {
            OFFSET 0 7.37523 0
            CHANNELS 3 Zrotation Xrotation Yrotation
            End Site
            {
              OFFSET 0 17.8522 -5.88741
            }
          }
        }
        JOINT RightShoulder
        {
          OFFSET -4.00356 10.2679 -0.557468
          CHANNELS 3 Zrotation Xrotation Yrotation
          JOINT RightArm
          {
            OFFSET 0 13.4673 0
            CHANNELS 3 Zrotation Xrotation Yrotation
            JOINT RightArmRoll
            {
              OFFSET 0 6.79858 0
              CHANNELS 3 Zrotation Xrotation Yrotation
              JOINT RightForeArm
              {
                OFFSET 0 19.8018 0
                CHANNELS 3 Zrotation Xrotation Yrotation
                JOINT RightForeArmRoll
                {
                  OFFSET 0 7.62905 0
                  CHANNELS 3 Zrotation Xrotation Yrotation
                  JOINT RightHand
                  {
                    OFFSET 0 15.3098 0
                    CHANNELS 3 Zrotation Xrotation Yrotation
                    End Site
                    {
                      OFFSET 0 0 0
                    }
                  }
                }
              }
            }
          }
        }
        JOINT LeftShoulder
        {
          OFFSET 4.00356 10.2679 -0.557468
          CHANNELS 3 Zrotation Xrotation Yrotation
          JOINT LeftArm
          {
            OFFSET 0 13.4673 0
            CHANNELS 3 Zrotation Xrotation Yrotation
            JOINT LeftArmRoll
            {
              OFFSET 0 6.79858 0
              CHANNELS 3 Zrotation Xrotation Yrotation
              JOINT LeftForeArm
              {
                OFFSET 0 19.8018 0
                CHANNELS 3 Zrotation Xrotation Yrotation
                JOINT LeftForeArmRoll
                {
                  OFFSET 0 7.62905 0
                  CHANNELS 3 Zrotation Xrotation Yrotation
                  JOINT LeftHand
                  {
                    OFFSET 0 15.3098 0
                    CHANNELS 3 Zrotation Xrotation Yrotation
                    End Site
                    {
                      OFFSET 0 0 0
                    }
                  }
                }
              }
            }
          }
        }
      }
    }
  }
  JOINT RightUpLeg
  {
    OFFSET -6.62609 -1.21505 -1.01927
    CHANNELS 3 Zrotation Xrotation Yrotation
    JOINT RightUpLegRoll
    {
      OFFSET 0 17.9517 0
      CHANNELS 3 Zrotation Xrotation Yrotation
      JOINT RightLeg
      {
        OFFSET 0 -22.2304 0
        CHANNELS 3 Zrotation Xrotation Yrotation
        JOINT RightLegRoll
        {
          OFFSET 0 22.3032 0
          CHANNELS 3 Zrotation Xrotation Yrotation
          JOINT RightFoot
          {
            OFFSET 0 18.5636 0
            CHANNELS 3 Zrotation Xrotation Yrotation
            JOINT RightToeBase
            {
              OFFSET 0 15.5183 0
              CHANNELS 3 Zrotation Xrotation Yrotation
              End Site
              {
                OFFSET 0.00657761 7.51538 -0.866263
              }
            }
          }
        }
      }
    }
  }
  JOINT LeftUpLeg
  {
    OFFSET 6.62609 -1.21505 -1.01927
    CHANNELS 3 Zrotation Xrotation Yrotation
    JOINT LeftUpLegRoll
    {
      OFFSET 0 17.9518 0
      CHANNELS 3 Zrotation Xrotation Yrotation
      JOINT LeftLeg
      {
        OFFSET 0 22.2303 0
        CHANNELS 3 Zrotation Xrotation Yrotation
        JOINT LeftLegRoll
        {
          OFFSET 0 22.5093 0
          CHANNELS 3 Zrotation Xrotation Yrotation
          JOINT LeftFoot
          {
            OFFSET 0 18.3575 0
            CHANNELS 3 Zrotation Xrotation Yrotation
            JOINT LeftToeBase
            {
              OFFSET 0 15.5183 0
              CHANNELS 3 Zrotation Xrotation Yrotation
              End Site
              {
                OFFSET -0.029478 7.51539 -0.866263
              }
            }
          }
        }
      }
    }
  }
}
MOTION
Frames: 4
Frame Time: 0.00208333
59.6313 92.481 6.24406 1.45067 -6.59865 -2.38391 0.0357952 -0.207293 -0.134119 0.0734796 3.60034 -0.259199 0.0767107 5.24541 -0.260674 -16.8658 0.967397 -0.621555 17.1455 5.30167 -2.49474 60.7117 -1.14427 -0.92582 110.113 6.32069 29.8184 -9.1139e-007 -1.96982e-006 8.0932e-006 -1.27438 -0.00959027 -1.42105 -6.97132e-006 2.03272e-006 -3.02776 8.03024 -4.95135 0.697641 -80.2975 -2.08337 3.23672 -91.1866 9.23773 -29.6759 1.04442e-006 4.86951e-007 -1.46574e-006 1.11206 2.30657 0.81713 1.04411e-006 2.73832e-006 3.00001 -8.03025 -4.95139 -0.697655 173.476 9.33662 3.78512 180 7.01523e-015 178.823 178.39 28.3261 179.298 1.14055e-006 -6.38286e-006 0.477354 -18.9553 68.2251 19.7114 8.18231 27.2099 -0.804273 174.9 0.382603 4.68361 4.54188e-006 -4.6773e-006 -1.19844 -4.50888 -12.0505 -0.210875 -2.08359e-006 -2.56809e-006 -0.161832 22.1072 70.9705 -22.4456 -8.13649 25.2327 3.48774 
59.6307 92.4821 6.24517 1.44926 -6.59997 -2.38396 0.0379611 -0.20734 -0.134488 0.0788567 3.59834 -0.260348 0.082118 5.24341 -0.261911 -16.8953 0.997737 -0.606573 17.1611 5.31948 -2.4914 60.6213 -1.1418 -0.914431 110.207 6.30027 29.8194 -9.1139e-007 -1.96982e-006 8.0932e-006 -1.2857 -0.00958735 -1.42105 -6.97132e-006 2.03272e-006 -3.02776 8.03024 -4.95135 0.697641 -80.2772 -2.1 3.24143 -91.2158 9.20749 -29.6418 1.04442e-006 4.86951e-007 -1.46574e-006 1.08035 2.41938 0.818009 1.04411e-006 2.73832e-006 3.00001 -8.03025 -4.95139 -0.697655 173.483 9.33388 3.77707 180 7.01523e-015 178.823 178.396 28.3252 179.297 1.14055e-006 -6.38286e-006 0.478061 -18.9592 68.2297 19.7156 8.18187 27.2038 -0.812391 174.902 0.373962 4.68165 4.54188e-006 -4.6773e-006 -1.19811 -4.50972 -12.0371 -0.210505 -2.08359e-006 -2.56809e-006 -0.161833 22.0946 70.962 -22.4361 -8.13649 25.2327 3.48774 
59.6131 92.4886 6.23854 1.44756 -6.60093 -2.38381 0.0401645 -0.207381 -0.134907 0.0843735 3.59627 -0.261563 0.0876666 5.24134 -0.263218 -16.9242 1.0274 -0.59173 17.1759 5.3377 -2.4881 60.53 -1.1398 -0.903237 110.304 6.27941 29.8192 -9.1139e-007 -1.96982e-006 8.0932e-006 -1.29637 -0.00958302 -1.42105 -6.97132e-006 2.03272e-006 -3.02776 8.03024 -4.95135 0.697641 -80.256 -2.11673 3.24609 -91.2463 9.17711 -29.6069 1.04442e-006 4.86951e-007 -1.46574e-006 1.04827 2.53241 0.818857 1.04411e-006 2.73832e-006 3.00001 -8.03025 -4.95139 -0.697655 173.491 9.33148 3.76878 180 7.01523e-015 178.823 178.402 28.3242 179.296 1.14055e-006 -6.38286e-006 0.478793 -18.9631 68.2343 19.7199 8.18141 27.1975 -0.820694 174.905 0.365888 4.6795 4.54188e-006 -4.6773e-006 -1.19779 -4.51058 -12.024 -0.210152 -2.08359e-006 -2.56809e-006 -0.161852 22.0823 70.9537 -22.4267 -8.13649 25.2327 3.48774 
59.6148 92.4863 6.2412 1.44566 -6.60162 -2.38354 0.0423941 -0.207419 -0.135362 0.0899878 3.59415 -0.262825 0.0933141 5.23922 -0.264574 -16.9528 1.05658 -0.576983 17.19 5.35621 -2.48481 60.438 -1.13813 -0.892179 110.403 6.25825 29.8182 -9.1139e-007 -1.96982e-006 8.0932e-006 -1.30659 -0.00957773 -1.42105 -6.97132e-006 2.03272e-006 -3.02776 8.03024 -4.95135 0.697641 -80.2341 -2.13353 3.25073 -91.2779 9.14663 -29.5715 1.04442e-006 4.86951e-007 -1.46574e-006 1.01592 2.64559 0.819684 1.04411e-006 2.73832e-006 3.00001 -8.03025 -4.95139 -0.697655 173.499 9.3293 3.76032 180 7.01523e-015 178.823 178.408 28.3233 179.295 1.14055e-006 -6.38286e-006 0.479542 -18.9671 68.2389 19.7241 8.18095 27.1911 -0.829128 174.908 0.35821 4.67722 4.54188e-006 -4.6773e-006 -1.19747 -4.51147 -12.0111 -0.20981 -2.08359e-006 -2.56809e-006 -0.161883 22.0703 70.9455 -22.4175 -8.13649 25.2327 3.48774 
